<svg width="44" height="44" viewBox="0 0 44 44" fill="none" xmlns="http://www.w3.org/2000/svg">
<path fill-rule="evenodd" clip-rule="evenodd" d="M35.4839 4.4H8.51613C6.16446 4.4 4.25806 6.36995 4.25806 8.8C4.25806 11.23 6.16446 13.2 8.51613 13.2L14.1935 8.8H31.2258L35.4839 13.2C37.8355 13.2 39.7419 11.23 39.7419 8.8C39.7419 6.36995 37.8355 4.4 35.4839 4.4ZM8.51613 0C3.8128 0 0 3.93989 0 8.8C0 13.6601 3.8128 17.6 8.51613 17.6L14.1935 11.7333H31.2258L35.4839 17.6C40.1872 17.6 44 13.6601 44 8.8C44 3.93989 40.1872 0 35.4839 0H8.51613Z" fill="#15B32F"/>
<path fill-rule="evenodd" clip-rule="evenodd" d="M10.5156 7.33336C9.41106 7.33336 8.51562 8.22879 8.51562 9.33336V42C8.51562 43.1046 9.41105 44 10.5156 44H33.4834C34.5879 44 35.4834 43.1046 35.4834 42V9.33336C35.4834 8.22879 34.5879 7.33336 33.4834 7.33336H10.5156ZM17.9847 33.8342C19.0036 34.643 20.4592 35.0473 22.3514 35.0473C23.3218 35.0473 24.2679 34.9355 25.1898 34.7118C26.1117 34.4881 26.8476 34.2386 27.3974 33.9633V31.8727C26.8152 32.148 26.0874 32.4147 25.2141 32.6728C24.3569 32.9137 23.4674 33.0341 22.5455 33.0341C19.9417 33.0341 18.6397 32.0362 18.6397 30.0402C18.6397 29.6444 18.664 29.3347 18.7125 29.111C18.761 28.8874 18.85 28.6465 18.9794 28.3884H28.4163V26.7365H20.7988C20.9444 26.6505 21.2598 26.5214 21.7449 26.3494C22.2301 26.1773 22.7719 25.9708 23.3703 25.7299C23.9687 25.4891 24.5429 25.231 25.0928 24.9556C25.6427 24.6631 26.047 24.3792 26.3058 24.1039H28.4163V22.4521H27.0821C27.2114 22.1768 27.3004 21.8671 27.3489 21.5229C27.3974 21.1616 27.4217 20.8003 27.4217 20.4389C27.4217 18.9764 26.9446 17.8923 25.9904 17.1869C25.0523 16.4642 23.7666 16.1029 22.1331 16.1029C21.2921 16.1029 20.4268 16.2061 19.5373 16.4126C18.6478 16.6191 17.8958 16.8772 17.2812 17.1869L17.8877 19.2259C18.4376 18.9506 19.0602 18.7011 19.7557 18.4774C20.4673 18.2537 21.2193 18.1418 22.0118 18.1418C23.1116 18.1418 23.9202 18.3741 24.4378 18.8387C24.9553 19.2861 25.2141 19.9141 25.2141 20.7228C25.2141 21.1186 25.1817 21.4455 25.117 21.7036C25.0685 21.9617 24.9796 22.2112 24.8502 22.4521H15.583V24.1039H23.055C22.9256 24.1727 22.6345 24.2932 22.1816 24.4653C21.7288 24.6201 21.2032 24.8094 20.6047 25.0331C20.0225 25.2568 19.4565 25.5149 18.9066 25.8074C18.3729 26.0827 17.9443 26.3924 17.6208 26.7365H15.583V28.3884H16.7232C16.5453 28.9218 16.4564 29.5154 16.4564 30.1692C16.4564 31.8039 16.9658 33.0255 17.9847 33.8342Z" fill="#15B32F"/>
</svg>
