<svg width="44" height="44" viewBox="0 0 44 44" fill="none" xmlns="http://www.w3.org/2000/svg">
<g clip-path="url(#clip0_1:55)">
<path d="M-0.000244141 11.4399C-0.000244141 10.0396 0.579222 8.69658 1.61068 7.70639C2.64213 6.7162 4.04109 6.15991 5.49978 6.15991H38.5C39.9587 6.15991 41.3576 6.7162 42.3891 7.70639C43.4205 8.69658 44 10.0396 44 11.4399V14.0799H-0.000244141V11.4399Z" fill="#15B32F"/>
<path fill-rule="evenodd" clip-rule="evenodd" d="M0.00012207 32.5713V18.9999H44.0001V32.5713C44.0001 34.0111 43.4207 35.3918 42.3892 36.4099C41.3578 37.428 39.9588 37.9999 38.5001 37.9999H5.50012C4.04143 37.9999 2.64248 37.428 1.61103 36.4099C0.579585 35.3918 0.00012207 34.0111 0.00012207 32.5713ZM31.6801 26.3999C30.7081 26.3999 29.9201 27.1879 29.9201 28.1599V30.7999C29.9201 31.7719 30.7081 32.5599 31.6801 32.5599H36.0801C37.0521 32.5599 37.8401 31.7719 37.8401 30.7999V28.1599C37.8401 27.1879 37.0521 26.3999 36.0801 26.3999H31.6801Z" fill="#15B32F"/>
</g>
<defs>
<clipPath id="clip0_1:55">
<rect width="44" height="44" fill="white"/>
</clipPath>
</defs>
</svg>
