<svg width="36" height="36" viewBox="0 0 36 36" fill="none" xmlns="http://www.w3.org/2000/svg">
<path fill-rule="evenodd" clip-rule="evenodd" d="M5.76004 2.4C5.76004 1.07452 6.83456 0 8.16004 0H27.12C28.4455 0 29.52 1.07452 29.52 2.4V33.6C29.52 34.9255 28.4455 36 27.12 36H8.16004C6.83455 36 5.76004 34.9255 5.76004 33.6V2.4ZM10.08 5.04047V27.3605H25.2V5.04047H10.08ZM9.12002 2.88047C8.45728 2.88047 7.92002 3.41772 7.92002 4.08046V28.3205C7.92002 28.9832 8.45728 29.5205 9.12002 29.5205H26.16C26.8228 29.5205 27.36 28.9832 27.36 28.3205V4.08047C27.36 3.41772 26.8228 2.88047 26.16 2.88047H9.12002ZM17.6406 34.5598C18.6347 34.5598 19.4406 33.7539 19.4406 32.7598C19.4406 31.7657 18.6347 30.9598 17.6406 30.9598C16.6464 30.9598 15.8406 31.7657 15.8406 32.7598C15.8406 33.7539 16.6464 34.5598 17.6406 34.5598Z" fill="#15B32F"/>
</svg>
