<svg width="24" height="36" viewBox="0 0 24 36" fill="none" xmlns="http://www.w3.org/2000/svg">
<g clip-path="url(#clip0_1:100)">
<path d="M19.8182 22.7495L19.8182 13.2529L4.18371 13.2529L4.18371 22.7495L19.8182 22.7495Z" fill="#FF5F00"/>
<path d="M12 14.2312C13.5054 14.23 14.9914 14.5686 16.3455 15.2213C17.6996 15.874 18.8863 16.8237 19.8158 17.9986C20.9685 16.5435 21.6854 14.7959 21.8843 12.9558C22.0833 11.1156 21.7564 9.25698 20.941 7.59239C20.1256 5.9278 18.8546 4.52437 17.2733 3.54251C15.692 2.56065 13.8641 2.03996 11.9986 2.03996C10.1331 2.03996 8.30519 2.56065 6.72385 3.54251C5.14252 4.52437 3.87152 5.9278 3.05613 7.59239C2.24074 9.25698 1.91385 11.1156 2.11282 12.9558C2.31179 14.7959 3.02859 16.5435 4.18131 17.9986C5.1111 16.8234 6.29824 15.8734 7.65285 15.2207C9.00746 14.568 10.494 14.2296 12 14.2312Z" fill="#EB001B"/>
<path d="M5.83845 33.0164L6.15882 33.0164L6.15882 33.1534L6.2251 33.1534L6.2251 32.8273L6.15882 32.8273L6.15882 32.9561L5.83845 32.9561L5.83845 33.0164ZM5.83845 33.6493L6.2251 33.6493L6.2251 33.5507L5.94892 33.4356L6.2251 33.3205L6.2251 33.2219L5.83845 33.2219L5.83845 33.2931L6.1312 33.2931L5.87987 33.4L5.87987 33.4739L6.1312 33.5808L5.83845 33.5808L5.83845 33.6493Z" fill="#F79E1B"/>
<path d="M11.9999 33.9588C10.1343 33.9587 8.30628 33.4379 6.72489 32.4559C5.1435 31.4738 3.87253 30.0702 3.05725 28.4054C2.24198 26.7406 1.9153 24.8818 2.11456 23.0415C2.31381 21.2012 3.03096 19.4537 4.18404 17.9986C5.11436 19.1731 6.3014 20.1225 7.65557 20.7754C9.00974 21.4283 10.4957 21.7675 12.0013 21.7675C13.5069 21.7675 14.9929 21.4283 16.347 20.7754C17.7012 20.1225 18.8882 19.1731 19.8186 17.9986C20.9716 19.4537 21.6888 21.2012 21.888 23.0415C22.0873 24.8818 21.7606 26.7406 20.9453 28.4054C20.1301 30.0702 18.8591 31.4738 17.2777 32.4559C15.6963 33.4379 13.8683 33.9587 12.0027 33.9588L11.9999 33.9588Z" fill="#F79E1B"/>
</g>
<defs>
<clipPath id="clip0_1:100">
<rect width="36" height="24" fill="white" transform="translate(24) rotate(90)"/>
</clipPath>
</defs>
</svg>
