<svg width="30" height="30" viewBox="0 0 30 30" fill="none" xmlns="http://www.w3.org/2000/svg">
<g clip-path="url(#clip0_1:82)">
<path d="M0 29.9997H13.6363V16.3632H0V29.9997ZM2.72706 19.0907H10.909V27.2514H2.72706V19.0907Z" fill="white"/>
<path d="M8.18182 21.8174H5.45462V24.545H8.18182V21.8174Z" fill="white"/>
<path d="M24.5454 27.272H21.8175V29.9993H24.5454V27.272Z" fill="white"/>
<path d="M30 27.272H27.2722V29.9993H30V27.272Z" fill="white"/>
<path d="M27.2727 19.0907H24.5456V16.3632H16.3635V29.9997H19.091V21.8178H21.8178V24.5454H29.9999V16.3632H27.2727V19.0907Z" fill="white"/>
<path d="M0 13.6366H13.6363V0H0V13.6366ZM2.72706 2.72706H10.909V10.909H2.72706V2.72706Z" fill="white"/>
<path d="M8.18182 5.45494H5.45462V8.18237H8.18182V5.45494Z" fill="white"/>
<path d="M16.3635 0V13.6366H30.0002V0H16.3635ZM27.2727 10.909H19.091V2.72706H27.2727V10.909Z" fill="white"/>
<path d="M24.5454 5.45494H21.8175V8.18237H24.5454V5.45494Z" fill="white"/>
</g>
<defs>
<clipPath id="clip0_1:82">
<rect width="30" height="30" fill="white"/>
</clipPath>
</defs>
</svg>
