<svg width="30" height="30" viewBox="0 0 30 30" fill="none" xmlns="http://www.w3.org/2000/svg">
<g clip-path="url(#clip0_1:76)">
<path d="M21.3111 0H8.68883C7.48082 0 6.50568 0.97952 6.50568 2.18534V27.8168C6.50568 29.0216 7.48082 30 8.68883 30H21.3111C22.5169 30 23.4942 29.0216 23.4942 27.8168V2.18534C23.4942 0.97952 22.5169 0 21.3111 0ZM11.8854 1.32716H18.1167C18.2741 1.32716 18.402 1.5622 18.402 1.853C18.402 2.14379 18.2741 2.37993 18.1167 2.37993H11.8854C11.7269 2.37993 11.6012 2.14379 11.6012 1.853C11.6012 1.5622 11.7269 1.32716 11.8854 1.32716ZM15.001 27.8431C14.2325 27.8431 13.6072 27.2178 13.6072 26.4481C13.6072 25.6785 14.2325 25.0554 15.001 25.0554C15.7674 25.0554 16.3927 25.6785 16.3927 26.4481C16.3927 27.2178 15.7674 27.8431 15.001 27.8431ZM21.8588 23.0668H8.14222V3.68741H21.8588V23.0668Z" fill="white"/>
</g>
<defs>
<clipPath id="clip0_1:76">
<rect width="30" height="30" fill="white"/>
</clipPath>
</defs>
</svg>
