<svg width="26" height="13" viewBox="0 0 26 13" fill="none" xmlns="http://www.w3.org/2000/svg">
<path d="M3.35156 5.02344C4.55469 5.02344 5.5 5.32292 6.1875 5.92188C6.88021 6.51562 7.22656 7.33073 7.22656 8.36719C7.22656 9.54948 6.84896 10.4766 6.09375 11.1484C5.34375 11.8203 4.30729 12.1562 2.98438 12.1562C1.69792 12.1562 0.716146 11.9505 0.0390625 11.5391V10.2891C0.403646 10.5234 0.856771 10.7083 1.39844 10.8438C1.9401 10.974 2.47396 11.0391 3 11.0391C3.91667 11.0391 4.6276 10.8229 5.13281 10.3906C5.64323 9.95833 5.89844 9.33333 5.89844 8.51562C5.89844 6.92188 4.92188 6.125 2.96875 6.125C2.47396 6.125 1.8125 6.20052 0.984375 6.35156L0.3125 5.92188L0.742188 0.578125H6.42188V1.77344H1.85156L1.5625 5.20312C2.16146 5.08333 2.75781 5.02344 3.35156 5.02344ZM16.5078 6.27344C16.5078 8.2474 16.1953 9.72135 15.5703 10.6953C14.9505 11.6693 14 12.1562 12.7188 12.1562C11.4896 12.1562 10.5547 11.6589 9.91406 10.6641C9.27344 9.66406 8.95312 8.20052 8.95312 6.27344C8.95312 4.28385 9.26302 2.80729 9.88281 1.84375C10.5026 0.880208 11.4479 0.398438 12.7188 0.398438C13.9583 0.398438 14.8984 0.901042 15.5391 1.90625C16.1849 2.91146 16.5078 4.36719 16.5078 6.27344ZM10.2656 6.27344C10.2656 7.9349 10.4609 9.14583 10.8516 9.90625C11.2422 10.6615 11.8646 11.0391 12.7188 11.0391C13.5833 11.0391 14.2083 10.6562 14.5938 9.89062C14.9844 9.11979 15.1797 7.91406 15.1797 6.27344C15.1797 4.63281 14.9844 3.43229 14.5938 2.67188C14.2083 1.90625 13.5833 1.52344 12.7188 1.52344C11.8646 1.52344 11.2422 1.90104 10.8516 2.65625C10.4609 3.40625 10.2656 4.61198 10.2656 6.27344ZM21.9525 12.16C20.7045 12.16 19.7445 11.9093 19.0725 11.408C18.4005 10.9067 18.0645 10.1493 18.0645 9.136C18.0645 8.73067 18.1232 8.36267 18.2405 8.032H17.4885V7.008H18.8325C19.0458 6.79467 19.3285 6.60267 19.6805 6.432C20.0432 6.25067 20.4165 6.09067 20.8005 5.952C21.1952 5.81333 21.5418 5.696 21.8405 5.6C22.1392 5.49333 22.3312 5.41867 22.4165 5.376H17.4885V4.352H23.6005C23.6858 4.20267 23.7445 4.048 23.7765 3.888C23.8192 3.728 23.8405 3.52533 23.8405 3.28C23.8405 2.77867 23.6698 2.38933 23.3285 2.112C22.9872 1.824 22.4538 1.68 21.7285 1.68C21.2058 1.68 20.7098 1.74933 20.2405 1.888C19.7818 2.02667 19.3712 2.18133 19.0085 2.352L18.6085 1.088C19.0138 0.895999 19.5098 0.735999 20.0965 0.608C20.6832 0.48 21.2538 0.415999 21.8085 0.415999C22.8858 0.415999 23.7338 0.639999 24.3525 1.088C24.9818 1.52533 25.2965 2.19733 25.2965 3.104C25.2965 3.328 25.2805 3.552 25.2485 3.776C25.2165 3.98933 25.1578 4.18133 25.0725 4.352H25.9525V5.376H24.5605C24.3898 5.54667 24.1232 5.72267 23.7605 5.904C23.3978 6.07467 23.0192 6.23467 22.6245 6.384C22.2298 6.53333 21.8725 6.66133 21.5525 6.768C21.2325 6.87467 21.0245 6.95467 20.9285 7.008H25.9525V8.032H19.7285C19.6432 8.192 19.5845 8.34133 19.5525 8.48C19.5205 8.61867 19.5045 8.81067 19.5045 9.056C19.5045 10.2933 20.3632 10.912 22.0805 10.912C22.6885 10.912 23.2752 10.8373 23.8405 10.688C24.4165 10.528 24.8965 10.3627 25.2805 10.192V11.488C24.9178 11.6587 24.4325 11.8133 23.8245 11.952C23.2165 12.0907 22.5925 12.16 21.9525 12.16Z" fill="white"/>
</svg>
