<svg width="27" height="16" viewBox="0 0 27 16" fill="none" xmlns="http://www.w3.org/2000/svg">
<path opacity="0.5" d="M6.96875 12H0.507812V0.578125H6.96875V2.15625H2.375V5.26562H6.67969V6.82812H2.375V10.4141H6.96875V12ZM16.8516 12H15.0078V6.6875C15.0078 6.02083 14.8724 5.52344 14.6016 5.19531C14.3359 4.86719 13.9115 4.70312 13.3281 4.70312C12.5521 4.70312 11.9844 4.93229 11.625 5.39062C11.2656 5.84896 11.0859 6.61719 11.0859 7.69531V12H9.25V3.35938H10.6875L10.9453 4.49219H11.0391C11.2995 4.08073 11.6693 3.76302 12.1484 3.53906C12.6276 3.3151 13.1589 3.20312 13.7422 3.20312C15.8151 3.20312 16.8516 4.25781 16.8516 6.36719V12ZM26.7031 3.35938V4.36719L25.2266 4.64062C25.362 4.82292 25.474 5.04688 25.5625 5.3125C25.651 5.57812 25.6953 5.85938 25.6953 6.15625C25.6953 7.04688 25.388 7.7474 24.7734 8.25781C24.1589 8.76823 23.3125 9.02344 22.2344 9.02344C21.9583 9.02344 21.7083 9.0026 21.4844 8.96094C21.0885 9.20573 20.8906 9.49219 20.8906 9.82031C20.8906 10.0182 20.9818 10.1667 21.1641 10.2656C21.3516 10.3646 21.6927 10.4141 22.1875 10.4141H23.6953C24.6484 10.4141 25.3724 10.6172 25.8672 11.0234C26.362 11.4297 26.6094 12.0156 26.6094 12.7812C26.6094 13.7604 26.2057 14.5156 25.3984 15.0469C24.5911 15.5781 23.4245 15.8438 21.8984 15.8438C20.7214 15.8438 19.8229 15.6354 19.2031 15.2188C18.5833 14.8021 18.2734 14.2083 18.2734 13.4375C18.2734 12.9062 18.4401 12.4583 18.7734 12.0938C19.112 11.7344 19.5833 11.4844 20.1875 11.3438C19.9427 11.2396 19.7396 11.0729 19.5781 10.8438C19.4219 10.6094 19.3438 10.3646 19.3438 10.1094C19.3438 9.78646 19.4349 9.51302 19.6172 9.28906C19.7995 9.0651 20.0703 8.84375 20.4297 8.625C19.9818 8.43229 19.6172 8.11979 19.3359 7.6875C19.0599 7.25 18.9219 6.73958 18.9219 6.15625C18.9219 5.21875 19.2161 4.49219 19.8047 3.97656C20.3984 3.46094 21.2422 3.20312 22.3359 3.20312C22.5807 3.20312 22.8359 3.22135 23.1016 3.25781C23.3724 3.28906 23.5755 3.32292 23.7109 3.35938H26.7031ZM19.9141 13.3438C19.9141 13.7396 20.0911 14.0443 20.4453 14.2578C20.8047 14.4714 21.3073 14.5781 21.9531 14.5781C22.9531 14.5781 23.6979 14.4349 24.1875 14.1484C24.6771 13.862 24.9219 13.4818 24.9219 13.0078C24.9219 12.6328 24.7865 12.3646 24.5156 12.2031C24.25 12.0469 23.7526 11.9688 23.0234 11.9688H21.6328C21.1068 11.9688 20.6875 12.0911 20.375 12.3359C20.0677 12.5859 19.9141 12.9219 19.9141 13.3438ZM20.7031 6.15625C20.7031 6.69792 20.8411 7.11458 21.1172 7.40625C21.3984 7.69792 21.7995 7.84375 22.3203 7.84375C23.3828 7.84375 23.9141 7.27604 23.9141 6.14062C23.9141 5.57812 23.7812 5.14583 23.5156 4.84375C23.2552 4.53646 22.8568 4.38281 22.3203 4.38281C21.7891 4.38281 21.3854 4.53385 21.1094 4.83594C20.8385 5.13802 20.7031 5.57812 20.7031 6.15625Z" fill="white"/>
</svg>
