<svg width="22" height="22" viewBox="0 0 22 22" fill="none" xmlns="http://www.w3.org/2000/svg">
<path opacity="0.5" d="M19.4105 12.0771C19.4576 11.7333 19.4812 11.3781 19.4812 11C19.4812 10.6333 19.4576 10.2667 19.3987 9.92292L21.7899 8.1125C21.893 8.02988 21.9634 7.91507 21.9891 7.78762C22.0149 7.66017 21.9945 7.52797 21.9313 7.41354L19.6696 3.60938C19.603 3.49429 19.4967 3.40585 19.3695 3.35971C19.2423 3.31357 19.1024 3.31272 18.9746 3.35729L16.1594 4.45729C15.5704 4.02188 14.9461 3.65521 14.2511 3.38021L13.8271 0.469795C13.8062 0.338631 13.7377 0.219095 13.6339 0.132893C13.5302 0.0466905 13.3981 -0.000460057 13.2616 3.3841e-06H8.73836C8.45565 3.3841e-06 8.23184 0.194795 8.18472 0.469795L7.76067 3.38021C7.06568 3.65521 6.4296 4.03334 5.85241 4.45729L3.03713 3.35729C2.77798 3.26563 2.4835 3.35729 2.34215 3.60938L0.0922833 7.41354C-0.0490693 7.65417 -0.00195193 7.95208 0.233636 8.1125L2.62485 9.92292C2.56596 10.2667 2.51884 10.6448 2.51884 11C2.51884 11.3552 2.5424 11.7333 2.60129 12.0771L0.210077 13.8875C0.107036 13.9701 0.0366299 14.0849 0.0108553 14.2124C-0.0149194 14.3398 0.00553193 14.472 0.0687246 14.5865L2.33037 18.3906C2.47172 18.6427 2.76621 18.7229 3.02535 18.6427L5.84063 17.5427C6.4296 17.9781 7.0539 18.3448 7.74889 18.6198L8.17295 21.5302C8.23184 21.8052 8.45565 22 8.73836 22H13.2616C13.5443 22 13.7799 21.8052 13.8153 21.5302L14.2393 18.6198C14.9343 18.3448 15.5704 17.9781 16.1476 17.5427L18.9629 18.6427C19.222 18.7344 19.5165 18.6427 19.6579 18.3906L21.9195 14.5865C22.0608 14.3344 22.0019 14.0479 21.7781 13.8875L19.4105 12.0771ZM11 15.125C8.66768 15.125 6.75942 13.2688 6.75942 11C6.75942 8.73125 8.66768 6.875 11 6.875C13.3323 6.875 15.2406 8.73125 15.2406 11C15.2406 13.2688 13.3323 15.125 11 15.125Z" fill="white"/>
</svg>
