<svg width="10" height="22" viewBox="0 0 10 22" fill="none" xmlns="http://www.w3.org/2000/svg">
<path d="M9.57065 19.6258L9.26326 20.8824C8.34108 21.2464 7.60444 21.5234 7.0559 21.7139C6.50678 21.905 5.86872 22 5.14175 22C4.02535 22 3.157 21.7265 2.53768 21.1833C1.91836 20.6379 1.6086 19.9468 1.6086 19.1085C1.6086 18.7839 1.63108 18.4501 1.67781 18.11C1.72493 17.7695 1.79986 17.3859 1.90239 16.9573L3.05486 12.8782C3.15739 12.4876 3.24454 12.1175 3.31434 11.7675C3.38513 11.4197 3.41924 11.0997 3.41924 10.8116C3.41924 10.2907 3.31139 9.92629 3.09666 9.72143C2.88194 9.51716 2.47222 9.41345 1.86394 9.41345C1.56601 9.41345 1.2598 9.46116 0.947674 9.55344C0.634169 9.64611 0.36621 9.73563 0.141235 9.81883L0.449417 8.56126C1.20439 8.25387 1.92605 7.99064 2.61635 7.77218C3.30665 7.55312 3.9589 7.44349 4.57586 7.44349C5.68456 7.44349 6.5401 7.71145 7.14089 8.24736C7.74167 8.78367 8.04197 9.47891 8.04197 10.3356C8.04197 10.5129 8.02225 10.8252 7.97986 11.2716C7.93845 11.719 7.86136 12.1289 7.74897 12.5018L6.60142 16.5645C6.50737 16.8908 6.42278 17.2639 6.34924 17.6837C6.27332 18.1007 6.23704 18.4193 6.23704 18.6331C6.23704 19.1725 6.35732 19.5409 6.59846 19.7366C6.84138 19.9324 7.25978 20.0298 7.85406 20.0298C8.13306 20.0298 8.45051 19.9804 8.80325 19.8831C9.15501 19.7859 9.41153 19.7006 9.57065 19.6258ZM9.86168 2.56917C9.86168 3.27702 9.5949 3.88155 9.05879 4.37863C8.52406 4.87747 7.87969 5.1271 7.1259 5.1271C6.36974 5.1271 5.7238 4.87747 5.18296 4.37863C4.6431 3.88136 4.37257 3.27702 4.37257 2.56917C4.37257 1.8627 4.6431 1.25718 5.18296 0.753793C5.72282 0.251199 6.36994 0 7.1259 0C7.8795 0 8.52406 0.25179 9.05879 0.753793C9.5953 1.25718 9.86168 1.86289 9.86168 2.56917Z" fill="white"/>
</svg>
