<svg width="20" height="22" viewBox="0 0 20 22" fill="none" xmlns="http://www.w3.org/2000/svg">
<path d="M10 22.0005C4.48594 22.0005 0 17.4114 0 11.7704C0 8.47593 1.56581 5.36372 4.18839 3.44486C4.89787 2.92603 5.884 3.09354 6.3911 3.81936C6.89845 4.54504 6.73471 5.55393 6.02529 6.07277C4.22987 7.38632 3.15781 9.51631 3.15781 11.7704C3.15781 15.6303 6.22716 18.7701 10 18.7701C13.7728 18.7701 16.8422 15.6303 16.8422 11.7704C16.8422 9.51631 15.7701 7.38632 13.9747 6.07277C13.2653 5.554 13.1015 4.5451 13.6089 3.81936C14.116 3.09361 15.1022 2.92603 15.8116 3.44486C18.4342 5.36365 20 8.47593 20 11.7704C20 17.4114 15.5141 22.0005 10 22.0005Z" fill="#15B32F"/>
<path d="M9.99928 11C9.14961 11 8.46082 10.3576 8.46082 9.56502V1.43457C8.46082 0.642362 9.14961 0 9.99928 0C10.8489 0 11.5377 0.642362 11.5377 1.43457V9.56508C11.5377 10.3576 10.8489 11 9.99928 11Z" fill="#15B32F"/>
</svg>
