<svg width="32" height="32" viewBox="0 0 32 32" fill="none" xmlns="http://www.w3.org/2000/svg">
<path d="M15.6773 8.76556L10.6287 14.045L26.6509 14.0365C27.3742 14.0365 28 14.6361 28 15.3904V16.5503C28 17.3046 27.3922 17.9551 26.6689 17.9551H10.5717L15.6773 23.2641C15.9245 23.5216 16.0601 23.8472 16.0601 24.2134C16.0601 24.5799 15.9245 24.9236 15.6773 25.1809L14.8917 26.001C14.6447 26.2583 14.3155 26.4002 13.9645 26.4002C13.6131 26.4002 13.2839 26.2585 13.0369 26.001L4.38264 16.9709C4.13464 16.7125 3.99903 16.3676 4.00001 15.9989C3.99903 15.6323 4.13464 15.2876 4.38264 15.0288L13.0369 5.9995C13.2839 5.74175 13.6133 5.60025 13.9645 5.60025C14.3155 5.60025 14.6447 5.74277 14.8917 6.00052L15.6773 6.82061C15.9245 7.07897 16.0601 7.42569 16.0601 7.79217C16.0601 8.15864 15.9245 8.50781 15.6773 8.76556Z" fill="white"/>
</svg>
