<svg width="44" height="44" viewBox="0 0 44 44" fill="none" xmlns="http://www.w3.org/2000/svg">
<path d="M1.46667 11.7333C1.46667 10.3719 2.00751 9.06621 2.97019 8.10352C3.93288 7.14084 5.23856 6.60001 6.60001 6.60001H37.4C38.7614 6.60001 40.0671 7.14084 41.0298 8.10352C41.9925 9.06621 42.5333 10.3719 42.5333 11.7333V11.3667H1.46667V11.7333Z" fill="#15B32F"/>
<path d="M35.5995 31.1767L35.6053 25.6622L29.9755 25.6567L29.9748 26.4073C32.7584 26.7334 34.5063 28.4486 34.8338 31.176L35.5995 31.1767Z" fill="#15B32F"/>
<path fill-rule="evenodd" clip-rule="evenodd" d="M1.46667 16.5V32.5C1.46667 33.7996 2.00751 35.0459 2.97019 35.9648C3.93288 36.8838 5.23856 37.4 6.60001 37.4H37.4C38.7614 37.4 40.0671 36.8838 41.0298 35.9648C41.9925 35.0459 42.5333 33.7996 42.5333 32.5V16.5H1.46667ZM27.9887 33.1188L31.8259 33.1224L31.8299 29.4768L27.9925 29.4732L27.9887 33.1188ZM27.9887 28.2862L27.9935 23.711L37.5918 23.7206L37.5818 33.122L32.911 33.1174L32.912 32.1461C32.9148 29.5884 31.592 28.2899 28.9808 28.2872L27.9887 28.2862Z" fill="#15B32F"/>
</svg>
