<svg width="44" height="44" viewBox="0 0 44 44" fill="none" xmlns="http://www.w3.org/2000/svg">
<path d="M1.46698 11.7334C1.46698 10.372 2.00781 9.06629 2.9705 8.10361C3.93319 7.14092 5.23887 6.60009 6.60031 6.60009H37.4003C38.7618 6.60009 40.0674 7.14092 41.0301 8.10361C41.9928 9.06629 42.5336 10.372 42.5336 11.7334V11.3668H1.46698V11.7334Z" fill="#15B32F"/>
<path fill-rule="evenodd" clip-rule="evenodd" d="M1.46698 32.2668V16.5001H42.5336V32.2668C42.5336 33.6282 41.9928 34.9339 41.0301 35.8966C40.0674 36.8593 38.7618 37.4001 37.4003 37.4001H6.60031C5.23887 37.4001 3.93319 36.8593 2.9705 35.8966C2.00781 34.9339 1.46698 33.6282 1.46698 32.2668ZM31.1164 26.2779C30.3343 26.2779 29.7003 26.9119 29.7003 27.694V30.8507C29.7003 31.6328 30.3343 32.2668 31.1164 32.2668H35.9842C36.7663 32.2668 37.4003 31.6328 37.4003 30.8507V27.694C37.4003 26.9119 36.7663 26.2779 35.9842 26.2779H31.1164Z" fill="#15B32F"/>
</svg>
